<?xml version="1.0" encoding="UTF-8" standalone="no"?>
<!DOCTYPE svg PUBLIC "-//W3C//DTD SVG 1.1//EN" "http://www.w3.org/Graphics/SVG/1.1/DTD/svg11.dtd">
<svg width="100%" height="100%" viewBox="0 0 3840 2160" version="1.1" xmlns="http://www.w3.org/2000/svg" xmlns:xlink="http://www.w3.org/1999/xlink" xml:space="preserve" xmlns:serif="http://www.serif.com/" style="fill-rule:evenodd;clip-rule:evenodd;stroke-linejoin:round;stroke-miterlimit:2;">
    <g transform="matrix(16.0351,0,0,16.0351,14,-226.071)">
        <path d="M30.356,75.615C13.617,75.615 0,61.998 0,45.259C0,28.521 13.617,14.903 30.356,14.903C47.094,14.903 60.712,28.521 60.712,45.259C60.712,61.998 47.094,75.615 30.356,75.615M30.356,20.294C16.59,20.294 5.391,31.493 5.391,45.259C5.391,59.025 16.59,70.224 30.356,70.224C44.122,70.224 55.321,59.025 55.321,45.259C55.321,31.493 44.122,20.294 30.356,20.294" style="fill:rgb(0,168,93);fill-rule:nonzero;"/>
        <path d="M33.838,62.45C29.419,61.596 24.658,59.044 20.615,55C16.571,50.957 14.019,46.195 13.165,41.777C12.974,40.793 11.559,40.783 11.378,41.769C10.274,47.795 12.05,54.245 16.71,58.905C21.37,63.565 27.82,65.341 33.846,64.237C34.832,64.056 34.822,62.641 33.838,62.45" style="fill:rgb(0,168,93);fill-rule:nonzero;"/>
        <path d="M44.001,31.614C39.341,26.954 32.892,25.177 26.865,26.282C25.88,26.462 25.889,27.878 26.873,28.068C31.292,28.922 36.054,31.474 40.097,35.518C44.14,39.561 46.693,44.323 47.547,48.742C47.737,49.725 49.153,49.735 49.333,48.749C50.437,42.723 48.661,36.274 44.001,31.614" style="fill:rgb(191,209,23);fill-rule:nonzero;"/>
        <path d="M218.571,56.936L86.202,56.936C85.469,56.936 84.874,57.53 84.874,58.264L84.874,67.738C84.874,68.472 85.469,69.066 86.202,69.066L218.571,69.066C219.305,69.066 219.899,68.472 219.899,67.738L219.899,58.264C219.899,57.53 219.305,56.936 218.571,56.936" style="fill:rgb(0,168,93);fill-rule:nonzero;"/>
        <path d="M84.874,51.737L84.874,27.527L76.164,27.527L76.164,21.943L99.927,21.943L99.927,27.527L91.262,27.527L91.262,51.737L84.874,51.737Z" style="fill:rgb(63,93,110);fill-rule:nonzero;"/>
        <path d="M103.99,51.737L103.99,21.943L125.074,21.943L125.074,27.527L110.333,27.527L110.333,33.825L124.761,33.825L124.761,39.408L110.333,39.408L110.333,46.153L125.074,46.153L125.074,51.737L103.99,51.737Z" style="fill:rgb(63,93,110);fill-rule:nonzero;"/>
        <path d="M128.601,36.862C128.601,27.705 135.525,21.452 144.459,21.452C151.025,21.452 154.822,25.025 156.921,28.732L151.472,31.412C150.221,29.001 147.541,27.08 144.459,27.08C139.054,27.08 135.123,31.234 135.123,36.862C135.123,42.491 139.054,46.645 144.459,46.645C147.541,46.645 150.221,44.769 151.472,42.312L156.921,44.947C154.777,48.655 151.025,52.273 144.459,52.273C135.525,52.273 128.601,46.019 128.601,36.862" style="fill:rgb(63,93,110);fill-rule:nonzero;"/>
        <path d="M158.706,47.538L162.146,42.714C164.245,44.903 167.506,46.734 171.616,46.734C175.099,46.734 176.797,45.126 176.797,43.428C176.797,38.158 159.644,41.776 159.644,30.564C159.644,25.606 163.933,21.496 170.945,21.496C175.68,21.496 179.611,22.926 182.559,25.651L179.03,30.296C176.619,28.062 173.402,27.035 170.365,27.035C167.64,27.035 166.121,28.241 166.121,30.028C166.121,34.763 183.229,31.591 183.229,42.714C183.229,48.163 179.343,52.273 171.303,52.273C165.585,52.273 161.476,50.352 158.706,47.538" style="fill:rgb(63,93,110);fill-rule:nonzero;"/>
        <path d="M187.516,51.737L187.516,21.943L208.6,21.943L208.6,27.527L193.859,27.527L193.859,33.825L208.287,33.825L208.287,39.408L193.859,39.408L193.859,46.153L208.6,46.153L208.6,51.737L187.516,51.737Z" style="fill:rgb(63,93,110);fill-rule:nonzero;"/>
        <path d="M213.556,51.737L213.556,21.943L227.493,21.943C233.97,21.943 237.499,26.321 237.499,31.547C237.499,36.728 233.925,41.151 227.493,41.151L219.9,41.151L219.9,51.737L213.556,51.737ZM231.022,31.547C231.022,29.045 229.145,27.526 226.644,27.526L219.9,27.526L219.9,35.567L226.644,35.567C229.145,35.567 231.022,34.003 231.022,31.547" style="fill:rgb(63,93,110);fill-rule:nonzero;"/>
        <path d="M88.943,65.152L88.943,61.698L87.7,61.698L87.7,60.901L91.091,60.901L91.091,61.698L89.854,61.698L89.854,65.152L88.943,65.152Z" style="fill:white;fill-rule:nonzero;"/>
        <path d="M91.672,65.152L91.672,60.901L94.68,60.901L94.68,61.698L92.578,61.698L92.578,62.596L94.636,62.596L94.636,63.393L92.578,63.393L92.578,64.356L94.68,64.356L94.68,65.152L91.672,65.152Z" style="fill:white;fill-rule:nonzero;"/>
        <path d="M95.186,63.03C95.186,61.723 96.174,60.831 97.448,60.831C98.386,60.831 98.927,61.341 99.227,61.87L98.45,62.252C98.271,61.908 97.889,61.634 97.448,61.634C96.677,61.634 96.117,62.227 96.117,63.03C96.117,63.833 96.677,64.425 97.448,64.425C97.889,64.425 98.271,64.158 98.45,63.807L99.227,64.183C98.921,64.712 98.386,65.229 97.448,65.229C96.174,65.229 95.186,64.337 95.186,63.03" style="fill:white;fill-rule:nonzero;"/>
        <path d="M102.703,65.152L100.677,62.379L100.677,65.152L99.771,65.152L99.771,60.901L100.702,60.901L102.671,63.571L102.671,60.901L103.576,60.901L103.576,65.152L102.703,65.152Z" style="fill:white;fill-rule:nonzero;"/>
        <path d="M104.216,63.03C104.216,61.749 105.153,60.831 106.434,60.831C107.721,60.831 108.659,61.749 108.659,63.03C108.659,64.311 107.721,65.229 106.434,65.229C105.153,65.229 104.216,64.311 104.216,63.03M107.728,63.03C107.728,62.233 107.218,61.634 106.434,61.634C105.65,61.634 105.147,62.233 105.147,63.03C105.147,63.82 105.65,64.425 106.434,64.425C107.218,64.425 107.728,63.82 107.728,63.03" style="fill:white;fill-rule:nonzero;"/>
        <path d="M109.299,65.152L109.299,60.901L110.204,60.901L110.204,64.356L112.001,64.356L112.001,65.152L109.299,65.152Z" style="fill:white;fill-rule:nonzero;"/>
        <path d="M112.258,63.03C112.258,61.749 113.194,60.831 114.475,60.831C115.763,60.831 116.7,61.749 116.7,63.03C116.7,64.311 115.763,65.229 114.475,65.229C113.194,65.229 112.258,64.311 112.258,63.03M115.77,63.03C115.77,62.233 115.259,61.634 114.475,61.634C113.692,61.634 113.188,62.233 113.188,63.03C113.188,63.82 113.692,64.425 114.475,64.425C115.259,64.425 115.77,63.82 115.77,63.03" style="fill:white;fill-rule:nonzero;"/>
        <path d="M117.136,63.03C117.136,61.685 118.156,60.831 119.398,60.831C120.284,60.831 120.839,61.277 121.158,61.781L120.405,62.188C120.214,61.889 119.851,61.634 119.398,61.634C118.627,61.634 118.067,62.227 118.067,63.03C118.067,63.833 118.627,64.425 119.398,64.425C119.775,64.425 120.131,64.26 120.303,64.101L120.303,63.591L119.182,63.591L119.182,62.8L121.208,62.8L121.208,64.432C120.775,64.916 120.169,65.235 119.398,65.235C118.156,65.235 117.136,64.368 117.136,63.03" style="fill:white;fill-rule:nonzero;"/>
        <rect x="121.932" y="60.901" width="0.905" height="4.251" style="fill:white;"/>
        <path d="M126.61,65.152L126.349,64.432L124.526,64.432L124.258,65.152L123.226,65.152L124.87,60.901L126.005,60.901L127.643,65.152L126.61,65.152ZM125.437,61.806L124.775,63.635L126.1,63.635L125.437,61.806Z" style="fill:white;fill-rule:nonzero;"/>
        <path d="M127.709,64.553L128.2,63.865C128.499,64.177 128.964,64.438 129.551,64.438C130.048,64.438 130.29,64.209 130.29,63.967C130.29,63.214 127.843,63.731 127.843,62.131C127.843,61.424 128.455,60.837 129.455,60.837C130.131,60.837 130.692,61.041 131.112,61.43L130.609,62.093C130.265,61.774 129.805,61.628 129.372,61.628C128.983,61.628 128.767,61.8 128.767,62.055C128.767,62.73 131.208,62.278 131.208,63.865C131.208,64.642 130.653,65.229 129.506,65.229C128.69,65.229 128.104,64.955 127.709,64.553" style="fill:white;fill-rule:nonzero;"/>
        <path d="M136.068,65.152C135.979,65.07 135.87,64.961 135.749,64.834C135.431,65.075 135.042,65.229 134.589,65.229C133.811,65.229 133.187,64.821 133.187,63.998C133.187,63.355 133.614,63.017 134.098,62.775C133.933,62.462 133.818,62.144 133.818,61.857C133.818,61.284 134.328,60.837 135.035,60.837C135.634,60.837 136.151,61.169 136.151,61.736C136.151,62.386 135.628,62.66 135.105,62.902C135.233,63.075 135.367,63.234 135.475,63.361C135.596,63.514 135.717,63.654 135.832,63.795C136.01,63.521 136.144,63.221 136.221,62.973L136.871,63.272C136.718,63.61 136.52,63.973 136.278,64.298C136.533,64.572 136.801,64.853 137.1,65.152L136.068,65.152ZM135.316,64.375C135.124,64.165 134.946,63.96 134.844,63.833C134.704,63.661 134.557,63.47 134.417,63.272C134.194,63.431 134.048,63.629 134.048,63.922C134.048,64.336 134.353,64.591 134.704,64.591C134.921,64.591 135.131,64.508 135.316,64.375M134.812,62.45C135.169,62.278 135.45,62.093 135.45,61.78C135.45,61.557 135.284,61.424 135.074,61.424C134.825,61.424 134.627,61.615 134.627,61.876C134.627,62.048 134.704,62.246 134.812,62.45" style="fill:white;fill-rule:nonzero;"/>
        <path d="M138.92,64.553L139.411,63.865C139.71,64.177 140.175,64.438 140.761,64.438C141.258,64.438 141.501,64.209 141.501,63.967C141.501,63.214 139.053,63.731 139.053,62.131C139.053,61.424 139.665,60.837 140.666,60.837C141.341,60.837 141.903,61.041 142.323,61.43L141.82,62.093C141.476,61.774 141.016,61.628 140.583,61.628C140.194,61.628 139.978,61.8 139.978,62.055C139.978,62.73 142.418,62.278 142.418,63.865C142.418,64.642 141.864,65.229 140.717,65.229C139.901,65.229 139.315,64.955 138.92,64.553" style="fill:white;fill-rule:nonzero;"/>
        <path d="M143.033,65.152L143.033,60.901L146.041,60.901L146.041,61.698L143.938,61.698L143.938,62.596L145.996,62.596L145.996,63.393L143.938,63.393L143.938,64.356L146.041,64.356L146.041,65.152L143.033,65.152Z" style="fill:white;fill-rule:nonzero;"/>
        <path d="M149.154,65.152L148.319,63.642L147.655,63.642L147.655,65.152L146.751,65.152L146.751,60.901L148.739,60.901C149.625,60.901 150.167,61.481 150.167,62.271C150.167,63.023 149.695,63.425 149.236,63.533L150.192,65.152L149.154,65.152ZM149.243,62.271C149.243,61.914 148.968,61.697 148.605,61.697L147.655,61.697L147.655,62.845L148.605,62.845C148.968,62.845 149.243,62.628 149.243,62.271" style="fill:white;fill-rule:nonzero;"/>
        <path d="M151.979,65.152L150.335,60.901L151.367,60.901L152.546,64.17L153.719,60.901L154.752,60.901L153.113,65.152L151.979,65.152Z" style="fill:white;fill-rule:nonzero;"/>
        <rect x="155.149" y="60.901" width="0.905" height="4.251" style="fill:white;"/>
        <path d="M158.216,66.172L158.375,65.847C158.534,65.968 158.719,66.032 158.892,66.032C159.063,66.032 159.223,65.961 159.223,65.821C159.223,65.72 159.159,65.655 159.038,65.655C158.955,65.655 158.885,65.694 158.834,65.745L158.541,65.579L158.674,65.209C157.54,65.095 156.693,64.241 156.693,63.03C156.693,61.723 157.68,60.831 158.955,60.831C159.892,60.831 160.434,61.341 160.733,61.869L159.956,62.252C159.777,61.908 159.395,61.634 158.955,61.634C158.183,61.634 157.623,62.227 157.623,63.03C157.623,63.833 158.184,64.425 158.955,64.425C159.395,64.425 159.777,64.158 159.956,63.807L160.733,64.183C160.44,64.693 159.93,65.184 159.063,65.222L158.968,65.452C159.032,65.414 159.114,65.388 159.197,65.388C159.433,65.388 159.624,65.567 159.624,65.834C159.624,66.172 159.299,66.376 158.917,66.376C158.611,66.376 158.35,66.28 158.216,66.172" style="fill:white;fill-rule:nonzero;"/>
        <path d="M161.074,63.03C161.074,61.749 162.01,60.831 163.291,60.831C164.579,60.831 165.516,61.749 165.516,63.03C165.516,64.311 164.579,65.229 163.291,65.229C162.01,65.229 161.074,64.311 161.074,63.03M164.586,63.03C164.586,62.233 164.075,61.634 163.291,61.634C162.508,61.634 162.004,62.233 162.004,63.03C162.004,63.82 162.508,64.425 163.291,64.425C164.075,64.425 164.586,63.82 164.586,63.03" style="fill:white;fill-rule:nonzero;"/>
        <path d="M165.869,64.553L166.36,63.865C166.659,64.177 167.125,64.438 167.711,64.438C168.208,64.438 168.451,64.209 168.451,63.967C168.451,63.214 166.003,63.731 166.003,62.131C166.003,61.424 166.615,60.837 167.615,60.837C168.291,60.837 168.852,61.041 169.272,61.43L168.769,62.093C168.425,61.774 167.966,61.628 167.532,61.628C167.143,61.628 166.927,61.8 166.927,62.055C166.927,62.73 169.368,62.278 169.368,63.865C169.368,64.642 168.814,65.229 167.666,65.229C166.85,65.229 166.264,64.955 165.869,64.553" style="fill:white;fill-rule:nonzero;"/>
        <path d="M171.614,65.152L171.614,60.901L173.291,60.901C174.622,60.901 175.547,61.749 175.547,63.03C175.547,64.311 174.622,65.152 173.291,65.152L171.614,65.152ZM174.622,63.03C174.622,62.278 174.164,61.698 173.291,61.698L172.519,61.698L172.519,64.355L173.291,64.355C174.132,64.355 174.622,63.75 174.622,63.03" style="fill:white;fill-rule:nonzero;"/>
        <path d="M176.193,65.152L176.193,60.901L179.201,60.901L179.201,61.698L177.098,61.698L177.098,62.596L179.157,62.596L179.157,63.393L177.098,63.393L177.098,64.356L179.201,64.356L179.201,65.152L176.193,65.152Z" style="fill:white;fill-rule:nonzero;"/>
        <path d="M181.543,65.152L181.543,60.901L183.531,60.901C184.456,60.901 184.959,61.526 184.959,62.271C184.959,63.01 184.45,63.642 183.531,63.642L182.448,63.642L182.448,65.152L181.543,65.152ZM184.035,62.271C184.035,61.914 183.767,61.697 183.411,61.697L182.448,61.697L182.448,62.845L183.411,62.845C183.767,62.845 184.035,62.622 184.035,62.271" style="fill:white;fill-rule:nonzero;"/>
        <path d="M185.523,65.152L185.523,60.901L188.531,60.901L188.531,61.698L186.427,61.698L186.427,62.596L188.486,62.596L188.486,63.393L186.427,63.393L186.427,64.356L188.531,64.356L188.531,65.152L185.523,65.152Z" style="fill:white;fill-rule:nonzero;"/>
        <path d="M190.222,65.152L190.222,61.698L188.979,61.698L188.979,60.901L192.37,60.901L192.37,61.698L191.133,61.698L191.133,65.152L190.222,65.152Z" style="fill:white;fill-rule:nonzero;"/>
        <path d="M195.355,65.152L194.519,63.642L193.857,63.642L193.857,65.152L192.952,65.152L192.952,60.901L194.94,60.901C195.826,60.901 196.368,61.481 196.368,62.271C196.368,63.023 195.896,63.425 195.437,63.533L196.393,65.152L195.355,65.152ZM195.444,62.271C195.444,61.914 195.169,61.697 194.806,61.697L193.857,61.697L193.857,62.845L194.806,62.845C195.169,62.845 195.444,62.628 195.444,62.271" style="fill:white;fill-rule:nonzero;"/>
        <path d="M196.848,63.03C196.848,61.749 197.785,60.831 199.066,60.831C200.353,60.831 201.291,61.749 201.291,63.03C201.291,64.311 200.353,65.229 199.066,65.229C197.785,65.229 196.848,64.311 196.848,63.03M200.36,63.03C200.36,62.233 199.85,61.634 199.066,61.634C198.282,61.634 197.779,62.233 197.779,63.03C197.779,63.82 198.282,64.426 199.066,64.426C199.85,64.426 200.36,63.82 200.36,63.03M199.232,60.544L198.665,60.544L199.518,59.626L200.264,59.626L199.232,60.544Z" style="fill:white;fill-rule:nonzero;"/>
        <path d="M201.931,65.152L201.931,60.901L202.836,60.901L202.836,64.356L204.633,64.356L204.633,65.152L201.931,65.152Z" style="fill:white;fill-rule:nonzero;"/>
        <path d="M205.266,65.152L205.266,60.901L208.274,60.901L208.274,61.698L206.171,61.698L206.171,62.596L208.229,62.596L208.229,63.393L206.171,63.393L206.171,64.356L208.274,64.356L208.274,65.152L205.266,65.152Z" style="fill:white;fill-rule:nonzero;"/>
        <path d="M208.78,63.03C208.78,61.749 209.716,60.831 210.997,60.831C212.285,60.831 213.222,61.749 213.222,63.03C213.222,64.311 212.285,65.229 210.997,65.229C209.716,65.229 208.78,64.311 208.78,63.03M212.291,63.03C212.291,62.233 211.781,61.634 210.997,61.634C210.213,61.634 209.71,62.233 209.71,63.03C209.71,63.82 210.213,64.425 210.997,64.425C211.781,64.425 212.291,63.82 212.291,63.03" style="fill:white;fill-rule:nonzero;"/>
        <path d="M213.575,64.553L214.066,63.865C214.365,64.177 214.83,64.438 215.417,64.438C215.914,64.438 216.156,64.209 216.156,63.967C216.156,63.214 213.709,63.731 213.709,62.131C213.709,61.424 214.321,60.837 215.321,60.837C215.997,60.837 216.558,61.041 216.978,61.43L216.475,62.093C216.131,61.774 215.671,61.628 215.238,61.628C214.849,61.628 214.633,61.8 214.633,62.055C214.633,62.73 217.074,62.278 217.074,63.865C217.074,64.642 216.519,65.229 215.372,65.229C214.556,65.229 213.97,64.955 213.575,64.553" style="fill:white;fill-rule:nonzero;"/>
    </g>
</svg>
